<svg width="71" height="94" viewBox="0 0 71 94" fill="none" xmlns="http://www.w3.org/2000/svg">
<mask id="path-1-inside-1_217_57" fill="white">
<rect width="71" height="88" rx="1"/>
</mask>
<rect width="71" height="88" rx="1" fill="black" stroke="white" stroke-width="4" mask="url(#path-1-inside-1_217_57)"/>
<mask id="mask0_217_57" style="mask-type:alpha" maskUnits="userSpaceOnUse" x="0" y="0" width="71" height="84">
<path d="M1 0.5H70C70.2761 0.5 70.5 0.723858 70.5 1V83C70.5 83.2761 70.2761 83.5 70 83.5H1C0.723858 83.5 0.5 83.2761 0.5 83V1C0.5 0.723858 0.723858 0.5 1 0.5Z" fill="black" stroke="#919191"/>
</mask>
<g mask="url(#mask0_217_57)">
<path d="M-2.20695 18.189L42.6846 31.3283M90.6529 44.9274L42.6846 31.3283M23.1626 81.9937L42.6846 31.3283M57.6013 -11.7956L42.6846 31.3283M19.8126 -9.07547L42.6846 31.3283M69.381 71.8586L42.6846 31.3283M-1.97936 50.9721L42.6846 31.3283M87.7769 12.5584L42.6846 31.3283" stroke="white" stroke-width="2" stroke-linecap="round" stroke-dasharray="4 5"/>
<path d="M11.2585 -0.687344L42.073 31.1204M75.2555 64.7306L42.073 31.1204M-4.11076 65.5834L42.073 31.1204M79.9264 1.00917L42.073 31.1204M45.9744 -13.9613L42.073 31.1204M42.073 85.05L42.073 31.1204M-7.60923 27.4993L42.073 31.1204M91.6139 35.6862L42.073 31.1204" stroke="white" stroke-linecap="round" stroke-dasharray="4 5"/>
<path d="M-4.73333 38.325L42.3744 31.4072M83.9026 25.0623L42.3744 31.4072M57.3304 87.8481L42.3744 31.4072M31.9807 -9.82164L42.3744 31.4072M-1.19519 84.0431L42.3744 31.4072M71.5257 -3.16305L42.3744 31.4072M-2.64223 0.864268L23.1725 19.6122L42.3744 31.4072M85.056 57.0063L42.3744 31.4072" stroke="white" stroke-width="2" stroke-linecap="round" stroke-dasharray="4 5"/>
<path d="M44.7481 19.8984C52.2274 21.4932 56.3935 28.0145 54.7566 34.0587C53.1197 40.1029 46.069 44.2323 38.5896 42.6374C31.1103 41.0426 26.9442 34.5213 28.5811 28.4771C30.218 22.4329 37.2687 18.3035 44.7481 19.8984Z" fill="white" stroke="white" stroke-width="5"/>
</g>
<path d="M46.7675 13.2902L69.7675 1.21197C70.1005 1.03713 70.5 1.27859 70.5 1.65464V83.3448C70.5 83.5493 70.3754 83.7333 70.1853 83.8091L47.1853 92.9886C46.857 93.1196 46.5 92.8778 46.5 92.5242V13.7329C46.5 13.547 46.603 13.3766 46.7675 13.2902Z" fill="#F8F8F8" stroke="black"/>
</svg>
