<svg width="80" height="83" viewBox="0 0 80 83" fill="none" xmlns="http://www.w3.org/2000/svg">
<circle cx="40" cy="43" r="39" fill="white" stroke="black" stroke-width="2"/>
<path d="M68 42.7484C68 53.6815 64.8618 63.2803 59.8461 70.1206C54.8317 76.9591 47.982 81 40.5 81C33.018 81 26.1683 76.9591 21.1539 70.1206C16.1382 63.2803 13 53.6815 13 42.7484C13 20.7765 25.5634 5 40.5 5C55.4366 5 68 20.7765 68 42.7484Z" fill="#D9D9D9" stroke="black" stroke-width="2"/>
<path d="M53 43C53 53.9642 51.4429 63.5926 48.9594 70.4435C47.7161 73.8728 46.2598 76.5531 44.6941 78.3575C43.1275 80.163 41.5383 81 40 81C38.4617 81 36.8725 80.163 35.3059 78.3575C33.7402 76.5531 32.2839 73.8728 31.0406 70.4435C28.5571 63.5926 27 53.9642 27 43C27 32.0356 28.5571 22.5347 31.0386 15.812C32.2807 12.4471 33.7352 9.83077 35.2978 8.07355C36.8595 6.31745 38.4504 5.5 40 5.5C41.5496 5.5 43.1405 6.31745 44.7022 8.07355C46.2648 9.83077 47.7193 12.4471 48.9614 15.812C51.4429 22.5347 53 32.0356 53 43Z" fill="#D9D9D9" stroke="black" stroke-width="2"/>
<path d="M5.5 25H74.5M1.5 46H78.5M11.5 69H68.5" stroke="black" stroke-width="2" stroke-linecap="round"/>
<circle cx="57.5" cy="17.5" r="16.5" fill="white" stroke="black" stroke-width="2"/>
<path d="M48 13L55 25L78 6" stroke="black" stroke-width="4" stroke-linecap="round" stroke-linejoin="round"/>
</svg>
